# xmcd
#
# Track frame offsets:
#	150
#	35642
#	64381
#	85676
#	119104
#	153371
#	188275
#	219279
#	228134
#	268530
#	296288
#
# Disc length: 4285 seconds
#
# Revision: 0
# Processed by: cddbd v1.5.2PL0 Copyright (c) Steve Scherf et al.
# Submitted via: EZCDAudioConverter 6.0.0.1
#
DISCID=9010bb0b
DTITLE=The Baylor Project - The Journey
DYEAR=1900
DGENRE=
TTITLE0=Block Party
TTITLE1=Great Is Thy Faithfulness
TTITLE2=Tell Me A Story
TTITLE3=Tenderly
TTITLE4=Our Love Is Here To Stay
TTITLE5=Again
TTITLE6=Summertime
TTITLE7=Voice Of The Drum
TTITLE8=Afro Blue
TTITLE9=Laugh And Move On
TTITLE10=Journey
EXTD=
EXTT0=
EXTT1=
EXTT2=
EXTT3=
EXTT4=
EXTT5=
EXTT6=
EXTT7=
EXTT8=
EXTT9=
EXTT10=
PLAYORDER=
